<svg xmlns="http://www.w3.org/2000/svg" xmlns:xlink="http://www.w3.org/1999/xlink" width="500" zoomAndPan="magnify" viewBox="0 0 375 374.999991" height="500" preserveAspectRatio="xMidYMid meet" version="1.0"><path fill="#38b6ff" d="M 243.792969 253.125 L 253.167969 253.125 C 254.089844 253.125 255.007812 253.078125 255.925781 252.988281 C 256.839844 252.898438 257.75 252.765625 258.65625 252.585938 C 259.558594 252.40625 260.449219 252.179688 261.332031 251.914062 C 262.214844 251.648438 263.078125 251.335938 263.929688 250.984375 C 264.78125 250.632812 265.613281 250.238281 266.425781 249.804688 C 267.238281 249.371094 268.027344 248.898438 268.792969 248.386719 C 269.558594 247.875 270.296875 247.324219 271.011719 246.742188 C 271.722656 246.15625 272.402344 245.539062 273.054688 244.886719 C 273.707031 244.234375 274.324219 243.554688 274.910156 242.84375 C 275.492188 242.128906 276.039062 241.390625 276.550781 240.625 C 277.0625 239.859375 277.539062 239.070312 277.972656 238.257812 C 278.40625 237.445312 278.800781 236.613281 279.152344 235.761719 C 279.503906 234.910156 279.8125 234.046875 280.082031 233.164062 C 280.347656 232.28125 280.574219 231.390625 280.753906 230.488281 C 280.933594 229.582031 281.066406 228.671875 281.15625 227.757812 C 281.246094 226.839844 281.292969 225.921875 281.292969 225 C 281.292969 224.382812 281.234375 223.773438 281.113281 223.171875 C 280.992188 222.566406 280.816406 221.980469 280.578125 221.414062 C 280.34375 220.84375 280.054688 220.304688 279.710938 219.792969 C 279.371094 219.28125 278.980469 218.804688 278.546875 218.371094 C 278.113281 217.933594 277.636719 217.546875 277.125 217.203125 C 276.613281 216.863281 276.074219 216.574219 275.503906 216.339844 C 274.9375 216.101562 274.351562 215.925781 273.746094 215.804688 C 273.144531 215.683594 272.53125 215.625 271.917969 215.625 L 225.042969 215.625 C 224.425781 215.625 223.816406 215.683594 223.214844 215.804688 C 222.609375 215.925781 222.023438 216.101562 221.453125 216.339844 C 220.886719 216.574219 220.347656 216.863281 219.835938 217.203125 C 219.324219 217.546875 218.847656 217.9375 218.414062 218.371094 C 217.976562 218.804688 217.589844 219.28125 217.246094 219.792969 C 216.90625 220.304688 216.617188 220.84375 216.382812 221.414062 C 216.144531 221.980469 215.96875 222.566406 215.847656 223.171875 C 215.726562 223.773438 215.667969 224.382812 215.667969 225 C 215.667969 225.921875 215.710938 226.839844 215.804688 227.757812 C 215.894531 228.671875 216.027344 229.582031 216.207031 230.488281 C 216.386719 231.390625 216.609375 232.28125 216.878906 233.164062 C 217.144531 234.046875 217.457031 234.910156 217.808594 235.761719 C 218.160156 236.613281 218.554688 237.445312 218.988281 238.257812 C 219.421875 239.070312 219.894531 239.859375 220.40625 240.625 C 220.917969 241.390625 221.46875 242.128906 222.050781 242.84375 C 222.636719 243.554688 223.253906 244.234375 223.90625 244.886719 C 224.554688 245.539062 225.238281 246.15625 225.949219 246.742188 C 226.664062 247.324219 227.402344 247.875 228.167969 248.386719 C 228.933594 248.898438 229.722656 249.371094 230.535156 249.804688 C 231.347656 250.238281 232.179688 250.632812 233.03125 250.984375 C 233.878906 251.335938 234.746094 251.648438 235.628906 251.914062 C 236.511719 252.179688 237.402344 252.40625 238.304688 252.585938 C 239.210938 252.765625 240.121094 252.898438 241.035156 252.988281 C 241.953125 253.078125 242.871094 253.125 243.792969 253.125 Z M 243.792969 253.125 " fill-opacity="1" fill-rule="nonzero"/><path fill="#38b6ff" d="M 121.917969 253.125 L 131.292969 253.125 C 132.214844 253.125 133.132812 253.078125 134.050781 252.988281 C 134.964844 252.898438 135.875 252.765625 136.78125 252.585938 C 137.683594 252.40625 138.574219 252.179688 139.457031 251.914062 C 140.339844 251.648438 141.203125 251.335938 142.054688 250.984375 C 142.90625 250.632812 143.738281 250.238281 144.550781 249.804688 C 145.363281 249.371094 146.152344 248.898438 146.917969 248.386719 C 147.683594 247.875 148.421875 247.324219 149.136719 246.742188 C 149.847656 246.15625 150.527344 245.539062 151.179688 244.886719 C 151.832031 244.234375 152.449219 243.554688 153.035156 242.84375 C 153.617188 242.128906 154.164062 241.390625 154.675781 240.625 C 155.1875 239.859375 155.664062 239.070312 156.097656 238.257812 C 156.53125 237.445312 156.925781 236.613281 157.277344 235.761719 C 157.628906 234.910156 157.9375 234.046875 158.207031 233.164062 C 158.472656 232.28125 158.699219 231.390625 158.878906 230.488281 C 159.058594 229.582031 159.191406 228.671875 159.28125 227.757812 C 159.371094 226.839844 159.417969 225.921875 159.417969 225 C 159.417969 224.382812 159.359375 223.773438 159.238281 223.171875 C 159.117188 222.566406 158.941406 221.980469 158.703125 221.414062 C 158.46875 220.84375 158.179688 220.304688 157.835938 219.792969 C 157.496094 219.28125 157.105469 218.804688 156.671875 218.371094 C 156.238281 217.933594 155.761719 217.546875 155.25 217.203125 C 154.738281 216.863281 154.199219 216.574219 153.628906 216.339844 C 153.0625 216.101562 152.476562 215.925781 151.871094 215.804688 C 151.269531 215.683594 150.65625 215.625 150.042969 215.625 L 103.167969 215.625 C 102.550781 215.625 101.941406 215.683594 101.339844 215.804688 C 100.734375 215.925781 100.148438 216.101562 99.578125 216.339844 C 99.011719 216.574219 98.472656 216.863281 97.960938 217.203125 C 97.449219 217.546875 96.972656 217.9375 96.539062 218.371094 C 96.101562 218.804688 95.714844 219.28125 95.371094 219.792969 C 95.03125 220.304688 94.742188 220.84375 94.507812 221.414062 C 94.269531 221.980469 94.09375 222.566406 93.972656 223.171875 C 93.851562 223.773438 93.792969 224.382812 93.792969 225 C 93.792969 225.921875 93.835938 226.839844 93.929688 227.757812 C 94.019531 228.671875 94.152344 229.582031 94.332031 230.488281 C 94.511719 231.390625 94.734375 232.28125 95.003906 233.164062 C 95.269531 234.046875 95.582031 234.910156 95.933594 235.761719 C 96.285156 236.613281 96.679688 237.445312 97.113281 238.257812 C 97.546875 239.070312 98.019531 239.859375 98.53125 240.625 C 99.042969 241.390625 99.59375 242.128906 100.175781 242.84375 C 100.761719 243.554688 101.378906 244.234375 102.03125 244.886719 C 102.679688 245.539062 103.363281 246.15625 104.074219 246.742188 C 104.789062 247.324219 105.527344 247.875 106.292969 248.386719 C 107.058594 248.898438 107.847656 249.371094 108.660156 249.804688 C 109.472656 250.238281 110.304688 250.632812 111.15625 250.984375 C 112.003906 251.335938 112.871094 251.648438 113.753906 251.914062 C 114.636719 252.179688 115.527344 252.40625 116.429688 252.585938 C 117.335938 252.765625 118.246094 252.898438 119.160156 252.988281 C 120.078125 253.078125 120.996094 253.125 121.917969 253.125 Z M 121.917969 253.125 " fill-opacity="1" fill-rule="nonzero"/><path fill="#38b6ff" d="M 37.542969 225 C 37.542969 307.671875 104.871094 375 187.542969 375 C 270.214844 375 337.542969 307.671875 337.542969 225 L 337.542969 168.75 L 37.542969 168.75 Z M 206.292969 318.75 L 168.792969 318.75 C 168.175781 318.75 167.566406 318.691406 166.964844 318.570312 C 166.359375 318.449219 165.773438 318.273438 165.203125 318.035156 C 164.636719 317.800781 164.097656 317.511719 163.585938 317.171875 C 163.074219 316.828125 162.597656 316.4375 162.164062 316.003906 C 161.726562 315.570312 161.339844 315.09375 160.996094 314.582031 C 160.65625 314.070312 160.367188 313.53125 160.132812 312.960938 C 159.894531 312.394531 159.71875 311.808594 159.597656 311.203125 C 159.476562 310.601562 159.417969 309.992188 159.417969 309.375 C 159.417969 308.757812 159.476562 308.148438 159.597656 307.546875 C 159.71875 306.941406 159.894531 306.355469 160.132812 305.789062 C 160.367188 305.21875 160.65625 304.679688 160.996094 304.167969 C 161.339844 303.65625 161.726562 303.179688 162.164062 302.746094 C 162.597656 302.3125 163.074219 301.921875 163.585938 301.578125 C 164.097656 301.238281 164.636719 300.949219 165.203125 300.714844 C 165.773438 300.476562 166.359375 300.300781 166.964844 300.179688 C 167.566406 300.058594 168.175781 300 168.792969 300 L 206.292969 300 C 206.90625 300 207.519531 300.058594 208.121094 300.179688 C 208.726562 300.300781 209.3125 300.476562 209.878906 300.714844 C 210.449219 300.949219 210.988281 301.238281 211.5 301.578125 C 212.011719 301.921875 212.488281 302.3125 212.921875 302.746094 C 213.355469 303.179688 213.746094 303.65625 214.085938 304.167969 C 214.429688 304.679688 214.71875 305.21875 214.953125 305.789062 C 215.191406 306.355469 215.367188 306.941406 215.488281 307.546875 C 215.609375 308.148438 215.667969 308.757812 215.667969 309.375 C 215.667969 309.992188 215.609375 310.601562 215.488281 311.203125 C 215.367188 311.808594 215.191406 312.394531 214.953125 312.960938 C 214.71875 313.53125 214.429688 314.070312 214.085938 314.582031 C 213.746094 315.09375 213.355469 315.570312 212.921875 316.003906 C 212.488281 316.4375 212.011719 316.828125 211.5 317.171875 C 210.988281 317.511719 210.449219 317.800781 209.878906 318.035156 C 209.3125 318.273438 208.726562 318.449219 208.121094 318.570312 C 207.519531 318.691406 206.90625 318.75 206.292969 318.75 Z M 103.167969 196.875 L 150.042969 196.875 C 151.484375 196.878906 152.917969 196.996094 154.339844 197.21875 C 155.765625 197.445312 157.160156 197.777344 158.535156 198.21875 C 159.90625 198.65625 161.238281 199.199219 162.527344 199.84375 C 163.816406 200.488281 165.046875 201.230469 166.222656 202.0625 C 167.398438 202.898438 168.503906 203.816406 169.539062 204.820312 C 170.570312 205.824219 171.523438 206.902344 172.390625 208.050781 C 173.261719 209.203125 174.035156 210.414062 174.71875 211.683594 C 175.402344 212.953125 175.984375 214.265625 176.464844 215.625 L 198.621094 215.625 C 199.101562 214.265625 199.683594 212.953125 200.367188 211.683594 C 201.050781 210.414062 201.824219 209.203125 202.691406 208.050781 C 203.5625 206.902344 204.511719 205.824219 205.546875 204.820312 C 206.582031 203.816406 207.6875 202.898438 208.863281 202.0625 C 210.035156 201.230469 211.269531 200.488281 212.558594 199.84375 C 213.847656 199.199219 215.179688 198.65625 216.550781 198.21875 C 217.921875 197.777344 219.320312 197.445312 220.746094 197.21875 C 222.167969 196.996094 223.601562 196.878906 225.042969 196.875 L 271.917969 196.875 C 272.839844 196.875 273.757812 196.921875 274.675781 197.011719 C 275.589844 197.101562 276.5 197.234375 277.40625 197.414062 C 278.308594 197.59375 279.199219 197.820312 280.082031 198.085938 C 280.964844 198.351562 281.828125 198.664062 282.679688 199.015625 C 283.53125 199.367188 284.363281 199.761719 285.175781 200.195312 C 285.988281 200.628906 286.777344 201.101562 287.542969 201.613281 C 288.308594 202.125 289.046875 202.675781 289.761719 203.257812 C 290.472656 203.84375 291.152344 204.460938 291.804688 205.113281 C 292.457031 205.765625 293.074219 206.445312 293.660156 207.15625 C 294.242188 207.871094 294.789062 208.609375 295.300781 209.375 C 295.8125 210.140625 296.289062 210.929688 296.722656 211.742188 C 297.15625 212.554688 297.550781 213.386719 297.902344 214.238281 C 298.253906 215.089844 298.5625 215.953125 298.832031 216.835938 C 299.097656 217.71875 299.324219 218.609375 299.503906 219.511719 C 299.683594 220.417969 299.816406 221.328125 299.90625 222.242188 C 299.996094 223.160156 300.042969 224.078125 300.042969 225 C 300.039062 226.535156 299.960938 228.066406 299.808594 229.59375 C 299.65625 231.117188 299.429688 232.632812 299.128906 234.140625 C 298.828125 235.644531 298.453125 237.128906 298.003906 238.597656 C 297.558594 240.066406 297.039062 241.507812 296.453125 242.925781 C 295.863281 244.34375 295.207031 245.726562 294.484375 247.078125 C 293.757812 248.433594 292.96875 249.746094 292.117188 251.023438 C 291.261719 252.296875 290.351562 253.527344 289.375 254.714844 C 288.402344 255.898438 287.375 257.035156 286.289062 258.121094 C 285.203125 259.207031 284.066406 260.234375 282.882812 261.207031 C 281.695312 262.183594 280.464844 263.097656 279.191406 263.949219 C 277.914062 264.800781 276.601562 265.589844 275.246094 266.316406 C 273.894531 267.039062 272.511719 267.695312 271.09375 268.285156 C 269.675781 268.871094 268.234375 269.390625 266.765625 269.835938 C 265.296875 270.285156 263.8125 270.660156 262.304688 270.960938 C 260.800781 271.261719 259.285156 271.488281 257.757812 271.640625 C 256.234375 271.792969 254.703125 271.871094 253.167969 271.875 L 243.792969 271.875 C 242.453125 271.875 241.117188 271.816406 239.785156 271.703125 C 238.453125 271.589844 237.125 271.417969 235.804688 271.191406 C 234.488281 270.964844 233.179688 270.679688 231.886719 270.339844 C 230.589844 270 229.3125 269.605469 228.054688 269.15625 C 226.792969 268.707031 225.554688 268.207031 224.335938 267.652344 C 223.117188 267.09375 221.925781 266.488281 220.761719 265.832031 C 219.59375 265.175781 218.457031 264.46875 217.355469 263.714844 C 216.25 262.960938 215.175781 262.160156 214.140625 261.3125 C 213.105469 260.464844 212.105469 259.578125 211.144531 258.644531 C 210.183594 257.714844 209.265625 256.742188 208.386719 255.730469 C 207.511719 254.71875 206.675781 253.675781 205.890625 252.59375 C 205.101562 251.511719 204.363281 250.398438 203.667969 249.25 C 202.976562 248.105469 202.335938 246.933594 201.742188 245.734375 C 201.152344 244.53125 200.609375 243.308594 200.125 242.0625 C 199.636719 240.816406 199.203125 239.550781 198.824219 238.265625 C 198.445312 236.984375 198.121094 235.6875 197.855469 234.375 L 177.230469 234.375 C 176.960938 235.6875 176.640625 236.984375 176.261719 238.265625 C 175.882812 239.550781 175.449219 240.816406 174.960938 242.0625 C 174.472656 243.308594 173.933594 244.53125 173.34375 245.734375 C 172.75 246.933594 172.109375 248.105469 171.417969 249.25 C 170.722656 250.398438 169.984375 251.511719 169.195312 252.59375 C 168.40625 253.675781 167.574219 254.71875 166.699219 255.730469 C 165.820312 256.742188 164.902344 257.714844 163.941406 258.644531 C 162.980469 259.578125 161.980469 260.464844 160.945312 261.3125 C 159.90625 262.160156 158.835938 262.960938 157.730469 263.714844 C 156.625 264.46875 155.492188 265.175781 154.324219 265.832031 C 153.160156 266.488281 151.96875 267.09375 150.75 267.652344 C 149.53125 268.207031 148.292969 268.707031 147.03125 269.15625 C 145.769531 269.605469 144.492188 270 143.199219 270.339844 C 141.90625 270.679688 140.597656 270.964844 139.277344 271.191406 C 137.960938 271.417969 136.632812 271.589844 135.300781 271.703125 C 133.96875 271.816406 132.632812 271.875 131.292969 271.875 L 121.917969 271.875 C 120.382812 271.871094 118.851562 271.792969 117.324219 271.640625 C 115.800781 271.488281 114.285156 271.261719 112.777344 270.960938 C 111.273438 270.660156 109.789062 270.285156 108.320312 269.835938 C 106.851562 269.390625 105.410156 268.871094 103.992188 268.285156 C 102.574219 267.695312 101.191406 267.039062 99.835938 266.316406 C 98.484375 265.589844 97.171875 264.800781 95.894531 263.949219 C 94.621094 263.097656 93.390625 262.183594 92.203125 261.207031 C 91.015625 260.234375 89.882812 259.207031 88.796875 258.121094 C 87.710938 257.035156 86.683594 255.898438 85.707031 254.714844 C 84.734375 253.527344 83.820312 252.296875 82.96875 251.023438 C 82.117188 249.746094 81.328125 248.433594 80.601562 247.078125 C 79.878906 245.726562 79.222656 244.34375 78.632812 242.925781 C 78.046875 241.507812 77.527344 240.066406 77.082031 238.597656 C 76.632812 237.128906 76.257812 235.644531 75.957031 234.140625 C 75.65625 232.632812 75.429688 231.117188 75.277344 229.59375 C 75.125 228.066406 75.046875 226.535156 75.042969 225 C 75.042969 224.078125 75.085938 223.160156 75.179688 222.242188 C 75.269531 221.328125 75.402344 220.417969 75.582031 219.511719 C 75.761719 218.609375 75.984375 217.71875 76.253906 216.835938 C 76.519531 215.953125 76.832031 215.089844 77.183594 214.238281 C 77.535156 213.386719 77.929688 212.554688 78.363281 211.742188 C 78.796875 210.929688 79.269531 210.140625 79.78125 209.375 C 80.292969 208.609375 80.84375 207.871094 81.425781 207.15625 C 82.011719 206.445312 82.628906 205.765625 83.28125 205.113281 C 83.929688 204.460938 84.613281 203.84375 85.324219 203.257812 C 86.039062 202.675781 86.777344 202.125 87.542969 201.613281 C 88.308594 201.101562 89.097656 200.628906 89.910156 200.195312 C 90.722656 199.761719 91.554688 199.367188 92.40625 199.015625 C 93.253906 198.664062 94.121094 198.351562 95.003906 198.085938 C 95.886719 197.820312 96.777344 197.59375 97.679688 197.414062 C 98.585938 197.234375 99.496094 197.101562 100.410156 197.011719 C 101.328125 196.921875 102.246094 196.875 103.167969 196.875 Z M 103.167969 196.875 " fill-opacity="1" fill-rule="nonzero"/><path fill="#38b6ff" d="M 299.785156 7.074219 C 299.65625 6.570312 299.484375 6.085938 299.273438 5.609375 C 299.0625 5.136719 298.816406 4.683594 298.53125 4.25 C 298.246094 3.820312 297.925781 3.414062 297.574219 3.03125 C 297.222656 2.652344 296.839844 2.304688 296.429688 1.984375 C 296.019531 1.667969 295.589844 1.386719 295.132812 1.140625 C 294.675781 0.890625 294.203125 0.683594 293.714844 0.515625 C 293.222656 0.347656 292.722656 0.21875 292.210938 0.132812 C 291.699219 0.046875 291.1875 0 290.667969 0 L 215.667969 0 C 214.9375 -0.00390625 214.21875 0.078125 213.511719 0.242188 C 212.800781 0.410156 212.121094 0.65625 211.46875 0.980469 C 210.820312 1.304688 210.214844 1.703125 209.65625 2.171875 C 209.097656 2.640625 208.601562 3.164062 208.167969 3.75 L 187.542969 31.277344 L 166.917969 3.75 C 166.484375 3.164062 165.988281 2.640625 165.429688 2.171875 C 164.871094 1.703125 164.265625 1.304688 163.613281 0.980469 C 162.964844 0.65625 162.28125 0.410156 161.574219 0.242188 C 160.863281 0.078125 160.144531 -0.00390625 159.417969 0 L 84.417969 0 C 83.898438 0 83.382812 0.046875 82.875 0.132812 C 82.363281 0.21875 81.863281 0.347656 81.371094 0.515625 C 80.882812 0.683594 80.410156 0.890625 79.953125 1.140625 C 79.496094 1.386719 79.0625 1.667969 78.652344 1.984375 C 78.246094 2.304688 77.863281 2.652344 77.511719 3.03125 C 77.160156 3.414062 76.839844 3.820312 76.554688 4.25 C 76.269531 4.683594 76.023438 5.136719 75.8125 5.609375 C 75.601562 6.085938 75.429688 6.570312 75.296875 7.074219 L 55.78125 75 L 320.410156 75 Z M 299.785156 7.074219 " fill-opacity="1" fill-rule="nonzero"/><path fill="#38b6ff" d="M 365.667969 131.25 L 335.496094 131.25 L 326.121094 93.75 L 50.410156 93.75 L 39.589844 131.25 L 9.417969 131.25 C 8.800781 131.25 8.191406 131.308594 7.589844 131.429688 C 6.984375 131.550781 6.398438 131.726562 5.828125 131.964844 C 5.261719 132.199219 4.722656 132.488281 4.210938 132.828125 C 3.699219 133.171875 3.222656 133.5625 2.789062 133.996094 C 2.351562 134.429688 1.964844 134.90625 1.621094 135.417969 C 1.28125 135.929688 0.992188 136.46875 0.757812 137.039062 C 0.519531 137.605469 0.34375 138.191406 0.222656 138.796875 C 0.101562 139.398438 0.0429688 140.007812 0.0429688 140.625 C 0.0429688 141.242188 0.101562 141.851562 0.222656 142.453125 C 0.34375 143.058594 0.519531 143.644531 0.757812 144.210938 C 0.992188 144.78125 1.28125 145.320312 1.621094 145.832031 C 1.964844 146.34375 2.351562 146.820312 2.789062 147.253906 C 3.222656 147.6875 3.699219 148.078125 4.210938 148.421875 C 4.722656 148.761719 5.261719 149.050781 5.828125 149.285156 C 6.398438 149.523438 6.984375 149.699219 7.589844 149.820312 C 8.191406 149.941406 8.800781 150 9.417969 150 L 365.667969 150 C 366.28125 150 366.894531 149.941406 367.496094 149.820312 C 368.101562 149.699219 368.6875 149.523438 369.253906 149.285156 C 369.824219 149.050781 370.363281 148.761719 370.875 148.421875 C 371.386719 148.078125 371.863281 147.6875 372.296875 147.253906 C 372.730469 146.820312 373.121094 146.34375 373.460938 145.832031 C 373.804688 145.320312 374.09375 144.78125 374.328125 144.210938 C 374.566406 143.644531 374.742188 143.058594 374.863281 142.453125 C 374.984375 141.851562 375.042969 141.242188 375.042969 140.625 C 375.042969 140.007812 374.984375 139.398438 374.863281 138.796875 C 374.742188 138.191406 374.566406 137.605469 374.328125 137.039062 C 374.09375 136.46875 373.804688 135.929688 373.460938 135.417969 C 373.121094 134.90625 372.730469 134.429688 372.296875 133.996094 C 371.863281 133.5625 371.386719 133.171875 370.875 132.828125 C 370.363281 132.488281 369.824219 132.199219 369.253906 131.964844 C 368.6875 131.726562 368.101562 131.550781 367.496094 131.429688 C 366.894531 131.308594 366.28125 131.25 365.667969 131.25 Z M 365.667969 131.25 " fill-opacity="1" fill-rule="nonzero"/></svg>