<svg xmlns="http://www.w3.org/2000/svg" xmlns:xlink="http://www.w3.org/1999/xlink" width="500" zoomAndPan="magnify" viewBox="0 0 375 374.999991" height="500" preserveAspectRatio="xMidYMid meet" version="1.0"><defs><g/><clipPath id="8516b7712d"><path d="M 45 182 L 113 182 L 113 228.460938 L 45 228.460938 Z M 45 182 " clip-rule="nonzero"/></clipPath><clipPath id="b726234edf"><path d="M 49 145.210938 L 109 145.210938 L 109 162 L 49 162 Z M 49 145.210938 " clip-rule="nonzero"/></clipPath><clipPath id="8a92078de1"><path d="M 37.5 166 L 120.75 166 L 120.75 179 L 37.5 179 Z M 37.5 166 " clip-rule="nonzero"/></clipPath></defs><rect x="-37.5" width="450" fill="#ffffff" y="-37.499999" height="449.999989" fill-opacity="1"/><rect x="-37.5" width="450" fill="#ffffff" y="-37.499999" height="449.999989" fill-opacity="1"/><rect x="-37.5" width="450" fill="#ffffff" y="-37.499999" height="449.999989" fill-opacity="1"/><g fill="#38b6ff" fill-opacity="1"><g transform="translate(135.86106, 184.898455)"><g><path d="M 16.75 -38.640625 C 18.800781 -38.640625 20.804688 -38.335938 22.765625 -37.734375 C 24.734375 -37.140625 26.191406 -36.550781 27.140625 -35.96875 L 28.515625 -35.046875 L 25.03125 -28.15625 C 24.75 -28.332031 24.363281 -28.566406 23.875 -28.859375 C 23.382812 -29.148438 22.460938 -29.539062 21.109375 -30.03125 C 19.765625 -30.53125 18.507812 -30.78125 17.34375 -30.78125 C 15.90625 -30.78125 14.789062 -30.472656 14 -29.859375 C 13.21875 -29.242188 12.828125 -28.414062 12.828125 -27.375 C 12.828125 -26.851562 13.007812 -26.367188 13.375 -25.921875 C 13.75 -25.472656 14.378906 -24.992188 15.265625 -24.484375 C 16.160156 -23.984375 16.941406 -23.578125 17.609375 -23.265625 C 18.285156 -22.960938 19.332031 -22.503906 20.75 -21.890625 C 23.195312 -20.847656 25.285156 -19.429688 27.015625 -17.640625 C 28.753906 -15.847656 29.625 -13.816406 29.625 -11.546875 C 29.625 -9.367188 29.234375 -7.46875 28.453125 -5.84375 C 27.671875 -4.21875 26.597656 -2.941406 25.234375 -2.015625 C 23.867188 -1.097656 22.359375 -0.421875 20.703125 0.015625 C 19.046875 0.460938 17.25 0.6875 15.3125 0.6875 C 13.65625 0.6875 12.03125 0.515625 10.4375 0.171875 C 8.84375 -0.160156 7.507812 -0.578125 6.4375 -1.078125 C 5.363281 -1.585938 4.394531 -2.085938 3.53125 -2.578125 C 2.675781 -3.066406 2.050781 -3.476562 1.65625 -3.8125 L 1.0625 -4.328125 L 5.375 -11.59375 C 5.75 -11.28125 6.253906 -10.882812 6.890625 -10.40625 C 7.535156 -9.9375 8.675781 -9.300781 10.3125 -8.5 C 11.957031 -7.707031 13.410156 -7.3125 14.671875 -7.3125 C 18.316406 -7.3125 20.140625 -8.554688 20.140625 -11.046875 C 20.140625 -11.566406 20.007812 -12.046875 19.75 -12.484375 C 19.488281 -12.929688 19.03125 -13.375 18.375 -13.8125 C 17.71875 -14.257812 17.132812 -14.613281 16.625 -14.875 C 16.125 -15.132812 15.296875 -15.53125 14.140625 -16.0625 C 12.992188 -16.601562 12.144531 -17.015625 11.59375 -17.296875 C 9.289062 -18.429688 7.507812 -19.847656 6.25 -21.546875 C 5 -23.253906 4.375 -25.085938 4.375 -27.046875 C 4.375 -30.453125 5.628906 -33.234375 8.140625 -35.390625 C 10.648438 -37.554688 13.519531 -38.640625 16.75 -38.640625 Z M 16.75 -38.640625 "/></g></g></g><g fill="#38b6ff" fill-opacity="1"><g transform="translate(171.370461, 184.898455)"><g><path d="M 2.765625 -37.953125 L 16.609375 -37.953125 C 20.472656 -37.953125 23.597656 -36.953125 25.984375 -34.953125 C 28.378906 -32.960938 29.578125 -30.066406 29.578125 -26.265625 C 29.578125 -22.460938 28.363281 -19.476562 25.9375 -17.3125 C 23.519531 -15.15625 20.410156 -14.078125 16.609375 -14.078125 L 11.40625 -14.078125 L 11.40625 0 L 2.765625 0 Z M 11.40625 -20.96875 L 13.84375 -20.96875 C 15.78125 -20.96875 17.367188 -21.359375 18.609375 -22.140625 C 19.847656 -22.929688 20.46875 -24.210938 20.46875 -25.984375 C 20.46875 -27.796875 19.847656 -29.09375 18.609375 -29.875 C 17.367188 -30.65625 15.78125 -31.046875 13.84375 -31.046875 L 11.40625 -31.046875 Z M 11.40625 -20.96875 "/></g></g></g><g fill="#38b6ff" fill-opacity="1"><g transform="translate(206.603876, 184.898455)"><g><path d="M -1.375 -37.953125 L 9.015625 -37.953125 L 16.921875 -25.8125 L 24.84375 -37.953125 L 35.234375 -37.953125 L 21.25 -17.015625 L 21.25 0 L 12.609375 0 L 12.609375 -17.015625 Z M -1.375 -37.953125 "/></g></g></g><g fill="#38b6ff" fill-opacity="1"><g transform="translate(245.057029, 184.898455)"><g><path d="M 2.765625 -37.953125 L 16.328125 -37.953125 C 19.972656 -37.953125 22.945312 -36.976562 25.25 -35.03125 C 27.550781 -33.082031 28.703125 -30.300781 28.703125 -26.6875 C 28.703125 -23.894531 28.003906 -21.554688 26.609375 -19.671875 C 25.210938 -17.785156 23.320312 -16.457031 20.9375 -15.6875 L 34 0 L 23 0 L 11.40625 -15 L 11.40625 0 L 2.765625 0 Z M 11.40625 -21.109375 L 12.421875 -21.109375 C 13.210938 -21.109375 13.882812 -21.125 14.4375 -21.15625 C 14.988281 -21.1875 15.617188 -21.296875 16.328125 -21.484375 C 17.035156 -21.671875 17.601562 -21.929688 18.03125 -22.265625 C 18.457031 -22.597656 18.820312 -23.085938 19.125 -23.734375 C 19.4375 -24.378906 19.59375 -25.160156 19.59375 -26.078125 C 19.59375 -27.003906 19.4375 -27.785156 19.125 -28.421875 C 18.820312 -29.066406 18.457031 -29.554688 18.03125 -29.890625 C 17.601562 -30.234375 17.035156 -30.492188 16.328125 -30.671875 C 15.617188 -30.859375 14.988281 -30.96875 14.4375 -31 C 13.882812 -31.03125 13.210938 -31.046875 12.421875 -31.046875 L 11.40625 -31.046875 Z M 11.40625 -21.109375 "/></g></g></g><g fill="#38b6ff" fill-opacity="1"><g transform="translate(282.590249, 184.898455)"><g><path d="M 1.0625 -19 C 1.0625 -24.488281 2.929688 -29.132812 6.671875 -32.9375 C 10.410156 -36.738281 14.914062 -38.640625 20.1875 -38.640625 C 25.5 -38.640625 30.007812 -36.742188 33.71875 -32.953125 C 37.425781 -29.171875 39.28125 -24.519531 39.28125 -19 C 39.28125 -13.445312 37.457031 -8.773438 33.8125 -4.984375 C 30.164062 -1.203125 25.625 0.6875 20.1875 0.6875 C 14.644531 0.6875 10.070312 -1.1875 6.46875 -4.9375 C 2.863281 -8.695312 1.0625 -13.382812 1.0625 -19 Z M 10.390625 -19 C 10.390625 -17.007812 10.695312 -15.191406 11.3125 -13.546875 C 11.925781 -11.910156 13 -10.523438 14.53125 -9.390625 C 16.070312 -8.253906 17.957031 -7.6875 20.1875 -7.6875 C 23.414062 -7.6875 25.847656 -8.789062 27.484375 -11 C 29.128906 -13.207031 29.953125 -15.875 29.953125 -19 C 29.953125 -22.09375 29.113281 -24.75 27.4375 -26.96875 C 25.769531 -29.195312 23.351562 -30.3125 20.1875 -30.3125 C 17.0625 -30.3125 14.644531 -29.195312 12.9375 -26.96875 C 11.238281 -24.75 10.390625 -22.09375 10.390625 -19 Z M 10.390625 -19 "/></g></g></g><g fill="#38b6ff" fill-opacity="1"><g transform="translate(136.61106, 218.50153)"><g><path d="M 1.203125 -16.5 L 7.21875 -16.5 C 8.894531 -16.5 10.253906 -16.066406 11.296875 -15.203125 C 12.335938 -14.335938 12.859375 -13.078125 12.859375 -11.421875 C 12.859375 -9.765625 12.332031 -8.46875 11.28125 -7.53125 C 10.226562 -6.59375 8.875 -6.125 7.21875 -6.125 L 4.953125 -6.125 L 4.953125 0 L 1.203125 0 Z M 4.953125 -9.125 L 6.015625 -9.125 C 6.859375 -9.125 7.550781 -9.289062 8.09375 -9.625 C 8.632812 -9.96875 8.90625 -10.523438 8.90625 -11.296875 C 8.90625 -12.085938 8.632812 -12.648438 8.09375 -12.984375 C 7.550781 -13.328125 6.859375 -13.5 6.015625 -13.5 L 4.953125 -13.5 Z M 4.953125 -9.125 "/></g></g></g><g fill="#38b6ff" fill-opacity="1"><g transform="translate(150.325802, 218.50153)"><g><path d="M 1.203125 0 L 1.203125 -10.265625 L 4.734375 -10.265625 L 4.734375 -8.78125 L 4.78125 -8.78125 C 4.800781 -8.832031 4.84375 -8.894531 4.90625 -8.96875 C 4.96875 -9.050781 5.097656 -9.191406 5.296875 -9.390625 C 5.492188 -9.597656 5.707031 -9.78125 5.9375 -9.9375 C 6.164062 -10.101562 6.457031 -10.25 6.8125 -10.375 C 7.175781 -10.5 7.546875 -10.5625 7.921875 -10.5625 C 8.304688 -10.5625 8.6875 -10.503906 9.0625 -10.390625 C 9.4375 -10.285156 9.707031 -10.179688 9.875 -10.078125 L 10.15625 -9.921875 L 8.6875 -6.921875 C 8.238281 -7.296875 7.625 -7.484375 6.84375 -7.484375 C 6.414062 -7.484375 6.046875 -7.390625 5.734375 -7.203125 C 5.429688 -7.015625 5.21875 -6.785156 5.09375 -6.515625 C 4.96875 -6.253906 4.875 -6.03125 4.8125 -5.84375 C 4.757812 -5.65625 4.734375 -5.507812 4.734375 -5.40625 L 4.734375 0 Z M 1.203125 0 "/></g></g></g><g fill="#38b6ff" fill-opacity="1"><g transform="translate(160.681875, 218.50153)"><g><path d="M 1.53125 -15.96875 C 1.945312 -16.382812 2.441406 -16.59375 3.015625 -16.59375 C 3.585938 -16.59375 4.082031 -16.382812 4.5 -15.96875 C 4.914062 -15.5625 5.125 -15.070312 5.125 -14.5 C 5.125 -13.925781 4.914062 -13.429688 4.5 -13.015625 C 4.082031 -12.609375 3.585938 -12.40625 3.015625 -12.40625 C 2.441406 -12.40625 1.945312 -12.609375 1.53125 -13.015625 C 1.125 -13.429688 0.921875 -13.925781 0.921875 -14.5 C 0.921875 -15.070312 1.125 -15.5625 1.53125 -15.96875 Z M 1.203125 -10.265625 L 1.203125 0 L 4.734375 0 L 4.734375 -10.265625 Z M 1.203125 -10.265625 "/></g></g></g><g fill="#38b6ff" fill-opacity="1"><g transform="translate(167.119491, 218.50153)"><g><path d="M 3.796875 -10.265625 L 6.296875 -4.6875 L 8.796875 -10.265625 L 13 -10.265625 L 7.5 0 L 5.09375 0 L -0.40625 -10.265625 Z M 3.796875 -10.265625 "/></g></g></g><g fill="#38b6ff" fill-opacity="1"><g transform="translate(180.114526, 218.50153)"><g><path d="M 1.890625 -1.265625 C 0.929688 -2.316406 0.453125 -3.601562 0.453125 -5.125 C 0.453125 -6.644531 0.929688 -7.929688 1.890625 -8.984375 C 2.859375 -10.035156 4.082031 -10.5625 5.5625 -10.5625 C 6.914062 -10.5625 8.035156 -10.132812 8.921875 -9.28125 L 8.921875 -10.265625 L 12.453125 -10.265625 L 12.453125 0 L 8.953125 0 L 8.953125 -1.15625 L 8.921875 -1.15625 C 8.035156 -0.1875 6.914062 0.296875 5.5625 0.296875 C 4.082031 0.296875 2.859375 -0.222656 1.890625 -1.265625 Z M 4.90625 -6.859375 C 4.445312 -6.410156 4.21875 -5.832031 4.21875 -5.125 C 4.21875 -4.414062 4.4375 -3.835938 4.875 -3.390625 C 5.320312 -2.941406 5.90625 -2.71875 6.625 -2.71875 C 7.3125 -2.71875 7.878906 -2.941406 8.328125 -3.390625 C 8.773438 -3.847656 9 -4.425781 9 -5.125 C 9 -5.832031 8.769531 -6.410156 8.3125 -6.859375 C 7.851562 -7.316406 7.289062 -7.546875 6.625 -7.546875 C 5.9375 -7.546875 5.363281 -7.316406 4.90625 -6.859375 Z M 4.90625 -6.859375 "/></g></g></g><g fill="#38b6ff" fill-opacity="1"><g transform="translate(194.169134, 218.50153)"><g><path d="M 1.796875 -10.265625 L 1.796875 -14.078125 L 5.34375 -14.078125 L 5.34375 -10.265625 L 7.5 -10.265625 L 7.5 -7.5625 L 5.34375 -7.5625 L 5.34375 -4.296875 C 5.34375 -3.347656 5.609375 -2.875 6.140625 -2.875 C 6.273438 -2.875 6.414062 -2.898438 6.5625 -2.953125 C 6.707031 -3.015625 6.820312 -3.070312 6.90625 -3.125 L 7.015625 -3.203125 L 7.90625 -0.34375 C 7.144531 0.0820312 6.273438 0.296875 5.296875 0.296875 C 4.628906 0.296875 4.054688 0.179688 3.578125 -0.046875 C 3.097656 -0.285156 2.734375 -0.597656 2.484375 -0.984375 C 2.242188 -1.378906 2.066406 -1.789062 1.953125 -2.21875 C 1.847656 -2.65625 1.796875 -3.125 1.796875 -3.625 L 1.796875 -7.5625 L 0.3125 -7.5625 L 0.3125 -10.265625 Z M 1.796875 -10.265625 "/></g></g></g><g fill="#38b6ff" fill-opacity="1"><g transform="translate(202.466014, 218.50153)"><g><path d="M 11.578125 -4.640625 L 4.140625 -4.640625 C 4.140625 -3.921875 4.375 -3.382812 4.84375 -3.03125 C 5.3125 -2.6875 5.816406 -2.515625 6.359375 -2.515625 C 6.929688 -2.515625 7.382812 -2.59375 7.71875 -2.75 C 8.050781 -2.90625 8.429688 -3.207031 8.859375 -3.65625 L 11.421875 -2.375 C 10.347656 -0.59375 8.570312 0.296875 6.09375 0.296875 C 4.550781 0.296875 3.222656 -0.226562 2.109375 -1.28125 C 1.003906 -2.34375 0.453125 -3.617188 0.453125 -5.109375 C 0.453125 -6.609375 1.003906 -7.890625 2.109375 -8.953125 C 3.222656 -10.023438 4.550781 -10.5625 6.09375 -10.5625 C 7.726562 -10.5625 9.050781 -10.085938 10.0625 -9.140625 C 11.082031 -8.203125 11.59375 -6.863281 11.59375 -5.125 C 11.59375 -4.882812 11.585938 -4.722656 11.578125 -4.640625 Z M 4.234375 -6.59375 L 8.140625 -6.59375 C 8.054688 -7.132812 7.84375 -7.546875 7.5 -7.828125 C 7.164062 -8.117188 6.734375 -8.265625 6.203125 -8.265625 C 5.609375 -8.265625 5.140625 -8.109375 4.796875 -7.796875 C 4.453125 -7.492188 4.265625 -7.09375 4.234375 -6.59375 Z M 4.234375 -6.59375 "/></g></g></g><g fill="#38b6ff" fill-opacity="1"><g transform="translate(214.921254, 218.50153)"><g/></g></g><g fill="#38b6ff" fill-opacity="1"><g transform="translate(220.7791, 218.50153)"><g><path d="M 1.203125 -16.5 L 5.984375 -16.5 C 8.273438 -16.5 10.234375 -15.710938 11.859375 -14.140625 C 13.484375 -12.578125 14.296875 -10.617188 14.296875 -8.265625 C 14.296875 -5.890625 13.484375 -3.914062 11.859375 -2.34375 C 10.242188 -0.78125 8.285156 0 5.984375 0 L 1.203125 0 Z M 4.953125 -3.359375 L 5.546875 -3.359375 C 6.910156 -3.359375 8.03125 -3.820312 8.90625 -4.75 C 9.78125 -5.675781 10.222656 -6.835938 10.234375 -8.234375 C 10.234375 -9.640625 9.796875 -10.804688 8.921875 -11.734375 C 8.054688 -12.671875 6.929688 -13.140625 5.546875 -13.140625 L 4.953125 -13.140625 Z M 4.953125 -3.359375 "/></g></g></g><g fill="#38b6ff" fill-opacity="1"><g transform="translate(235.933274, 218.50153)"><g><path d="M 11.578125 -4.640625 L 4.140625 -4.640625 C 4.140625 -3.921875 4.375 -3.382812 4.84375 -3.03125 C 5.3125 -2.6875 5.816406 -2.515625 6.359375 -2.515625 C 6.929688 -2.515625 7.382812 -2.59375 7.71875 -2.75 C 8.050781 -2.90625 8.429688 -3.207031 8.859375 -3.65625 L 11.421875 -2.375 C 10.347656 -0.59375 8.570312 0.296875 6.09375 0.296875 C 4.550781 0.296875 3.222656 -0.226562 2.109375 -1.28125 C 1.003906 -2.34375 0.453125 -3.617188 0.453125 -5.109375 C 0.453125 -6.609375 1.003906 -7.890625 2.109375 -8.953125 C 3.222656 -10.023438 4.550781 -10.5625 6.09375 -10.5625 C 7.726562 -10.5625 9.050781 -10.085938 10.0625 -9.140625 C 11.082031 -8.203125 11.59375 -6.863281 11.59375 -5.125 C 11.59375 -4.882812 11.585938 -4.722656 11.578125 -4.640625 Z M 4.234375 -6.59375 L 8.140625 -6.59375 C 8.054688 -7.132812 7.84375 -7.546875 7.5 -7.828125 C 7.164062 -8.117188 6.734375 -8.265625 6.203125 -8.265625 C 5.609375 -8.265625 5.140625 -8.109375 4.796875 -7.796875 C 4.453125 -7.492188 4.265625 -7.09375 4.234375 -6.59375 Z M 4.234375 -6.59375 "/></g></g></g><g fill="#38b6ff" fill-opacity="1"><g transform="translate(248.388519, 218.50153)"><g><path d="M 1.796875 -10.265625 L 1.796875 -14.078125 L 5.34375 -14.078125 L 5.34375 -10.265625 L 7.5 -10.265625 L 7.5 -7.5625 L 5.34375 -7.5625 L 5.34375 -4.296875 C 5.34375 -3.347656 5.609375 -2.875 6.140625 -2.875 C 6.273438 -2.875 6.414062 -2.898438 6.5625 -2.953125 C 6.707031 -3.015625 6.820312 -3.070312 6.90625 -3.125 L 7.015625 -3.203125 L 7.90625 -0.34375 C 7.144531 0.0820312 6.273438 0.296875 5.296875 0.296875 C 4.628906 0.296875 4.054688 0.179688 3.578125 -0.046875 C 3.097656 -0.285156 2.734375 -0.597656 2.484375 -0.984375 C 2.242188 -1.378906 2.066406 -1.789062 1.953125 -2.21875 C 1.847656 -2.65625 1.796875 -3.125 1.796875 -3.625 L 1.796875 -7.5625 L 0.3125 -7.5625 L 0.3125 -10.265625 Z M 1.796875 -10.265625 "/></g></g></g><g fill="#38b6ff" fill-opacity="1"><g transform="translate(256.685394, 218.50153)"><g><path d="M 11.578125 -4.640625 L 4.140625 -4.640625 C 4.140625 -3.921875 4.375 -3.382812 4.84375 -3.03125 C 5.3125 -2.6875 5.816406 -2.515625 6.359375 -2.515625 C 6.929688 -2.515625 7.382812 -2.59375 7.71875 -2.75 C 8.050781 -2.90625 8.429688 -3.207031 8.859375 -3.65625 L 11.421875 -2.375 C 10.347656 -0.59375 8.570312 0.296875 6.09375 0.296875 C 4.550781 0.296875 3.222656 -0.226562 2.109375 -1.28125 C 1.003906 -2.34375 0.453125 -3.617188 0.453125 -5.109375 C 0.453125 -6.609375 1.003906 -7.890625 2.109375 -8.953125 C 3.222656 -10.023438 4.550781 -10.5625 6.09375 -10.5625 C 7.726562 -10.5625 9.050781 -10.085938 10.0625 -9.140625 C 11.082031 -8.203125 11.59375 -6.863281 11.59375 -5.125 C 11.59375 -4.882812 11.585938 -4.722656 11.578125 -4.640625 Z M 4.234375 -6.59375 L 8.140625 -6.59375 C 8.054688 -7.132812 7.84375 -7.546875 7.5 -7.828125 C 7.164062 -8.117188 6.734375 -8.265625 6.203125 -8.265625 C 5.609375 -8.265625 5.140625 -8.109375 4.796875 -7.796875 C 4.453125 -7.492188 4.265625 -7.09375 4.234375 -6.59375 Z M 4.234375 -6.59375 "/></g></g></g><g fill="#38b6ff" fill-opacity="1"><g transform="translate(269.140639, 218.50153)"><g><path d="M 6.65625 -7.65625 C 5.988281 -7.65625 5.414062 -7.410156 4.9375 -6.921875 C 4.457031 -6.429688 4.21875 -5.835938 4.21875 -5.140625 C 4.21875 -4.429688 4.457031 -3.828125 4.9375 -3.328125 C 5.414062 -2.835938 5.988281 -2.59375 6.65625 -2.59375 C 6.976562 -2.59375 7.28125 -2.632812 7.5625 -2.71875 C 7.851562 -2.800781 8.066406 -2.878906 8.203125 -2.953125 L 8.375 -3.078125 L 9.578125 -0.625 C 9.484375 -0.550781 9.351562 -0.460938 9.1875 -0.359375 C 9.019531 -0.265625 8.640625 -0.132812 8.046875 0.03125 C 7.453125 0.207031 6.816406 0.296875 6.140625 0.296875 C 4.628906 0.296875 3.300781 -0.226562 2.15625 -1.28125 C 1.019531 -2.34375 0.453125 -3.613281 0.453125 -5.09375 C 0.453125 -6.59375 1.019531 -7.878906 2.15625 -8.953125 C 3.300781 -10.023438 4.628906 -10.5625 6.140625 -10.5625 C 6.816406 -10.5625 7.441406 -10.476562 8.015625 -10.3125 C 8.585938 -10.15625 8.992188 -10 9.234375 -9.84375 L 9.578125 -9.59375 L 8.375 -7.1875 C 7.9375 -7.5 7.363281 -7.65625 6.65625 -7.65625 Z M 6.65625 -7.65625 "/></g></g></g><g fill="#38b6ff" fill-opacity="1"><g transform="translate(279.356756, 218.50153)"><g><path d="M 1.796875 -10.265625 L 1.796875 -14.078125 L 5.34375 -14.078125 L 5.34375 -10.265625 L 7.5 -10.265625 L 7.5 -7.5625 L 5.34375 -7.5625 L 5.34375 -4.296875 C 5.34375 -3.347656 5.609375 -2.875 6.140625 -2.875 C 6.273438 -2.875 6.414062 -2.898438 6.5625 -2.953125 C 6.707031 -3.015625 6.820312 -3.070312 6.90625 -3.125 L 7.015625 -3.203125 L 7.90625 -0.34375 C 7.144531 0.0820312 6.273438 0.296875 5.296875 0.296875 C 4.628906 0.296875 4.054688 0.179688 3.578125 -0.046875 C 3.097656 -0.285156 2.734375 -0.597656 2.484375 -0.984375 C 2.242188 -1.378906 2.066406 -1.789062 1.953125 -2.21875 C 1.847656 -2.65625 1.796875 -3.125 1.796875 -3.625 L 1.796875 -7.5625 L 0.3125 -7.5625 L 0.3125 -10.265625 Z M 1.796875 -10.265625 "/></g></g></g><g fill="#38b6ff" fill-opacity="1"><g transform="translate(287.65363, 218.50153)"><g><path d="M 1.53125 -15.96875 C 1.945312 -16.382812 2.441406 -16.59375 3.015625 -16.59375 C 3.585938 -16.59375 4.082031 -16.382812 4.5 -15.96875 C 4.914062 -15.5625 5.125 -15.070312 5.125 -14.5 C 5.125 -13.925781 4.914062 -13.429688 4.5 -13.015625 C 4.082031 -12.609375 3.585938 -12.40625 3.015625 -12.40625 C 2.441406 -12.40625 1.945312 -12.609375 1.53125 -13.015625 C 1.125 -13.429688 0.921875 -13.925781 0.921875 -14.5 C 0.921875 -15.070312 1.125 -15.5625 1.53125 -15.96875 Z M 1.203125 -10.265625 L 1.203125 0 L 4.734375 0 L 4.734375 -10.265625 Z M 1.203125 -10.265625 "/></g></g></g><g fill="#38b6ff" fill-opacity="1"><g transform="translate(294.091252, 218.50153)"><g><path d="M 3.796875 -10.265625 L 6.296875 -4.6875 L 8.796875 -10.265625 L 13 -10.265625 L 7.5 0 L 5.09375 0 L -0.40625 -10.265625 Z M 3.796875 -10.265625 "/></g></g></g><g fill="#38b6ff" fill-opacity="1"><g transform="translate(307.086292, 218.50153)"><g><path d="M 11.578125 -4.640625 L 4.140625 -4.640625 C 4.140625 -3.921875 4.375 -3.382812 4.84375 -3.03125 C 5.3125 -2.6875 5.816406 -2.515625 6.359375 -2.515625 C 6.929688 -2.515625 7.382812 -2.59375 7.71875 -2.75 C 8.050781 -2.90625 8.429688 -3.207031 8.859375 -3.65625 L 11.421875 -2.375 C 10.347656 -0.59375 8.570312 0.296875 6.09375 0.296875 C 4.550781 0.296875 3.222656 -0.226562 2.109375 -1.28125 C 1.003906 -2.34375 0.453125 -3.617188 0.453125 -5.109375 C 0.453125 -6.609375 1.003906 -7.890625 2.109375 -8.953125 C 3.222656 -10.023438 4.550781 -10.5625 6.09375 -10.5625 C 7.726562 -10.5625 9.050781 -10.085938 10.0625 -9.140625 C 11.082031 -8.203125 11.59375 -6.863281 11.59375 -5.125 C 11.59375 -4.882812 11.585938 -4.722656 11.578125 -4.640625 Z M 4.234375 -6.59375 L 8.140625 -6.59375 C 8.054688 -7.132812 7.84375 -7.546875 7.5 -7.828125 C 7.164062 -8.117188 6.734375 -8.265625 6.203125 -8.265625 C 5.609375 -8.265625 5.140625 -8.109375 4.796875 -7.796875 C 4.453125 -7.492188 4.265625 -7.09375 4.234375 -6.59375 Z M 4.234375 -6.59375 "/></g></g></g><path fill="#38b6ff" d="M 91.621094 201.40625 L 93.703125 201.40625 C 94.113281 201.40625 94.519531 201.367188 94.921875 201.285156 C 95.324219 201.207031 95.714844 201.085938 96.09375 200.929688 C 96.472656 200.773438 96.832031 200.582031 97.171875 200.355469 C 97.511719 200.125 97.828125 199.867188 98.117188 199.578125 C 98.40625 199.289062 98.667969 198.972656 98.894531 198.632812 C 99.121094 198.289062 99.316406 197.929688 99.472656 197.550781 C 99.628906 197.171875 99.746094 196.78125 99.828125 196.378906 C 99.90625 195.976562 99.945312 195.574219 99.945312 195.164062 C 99.945312 194.886719 99.894531 194.621094 99.789062 194.367188 C 99.683594 194.109375 99.53125 193.886719 99.335938 193.691406 C 99.140625 193.496094 98.917969 193.34375 98.664062 193.238281 C 98.40625 193.132812 98.140625 193.082031 97.867188 193.082031 L 87.460938 193.082031 C 87.183594 193.082031 86.917969 193.132812 86.664062 193.238281 C 86.40625 193.34375 86.183594 193.496094 85.988281 193.691406 C 85.792969 193.886719 85.640625 194.109375 85.535156 194.367188 C 85.429688 194.621094 85.378906 194.886719 85.378906 195.164062 C 85.378906 195.574219 85.417969 195.976562 85.5 196.378906 C 85.578125 196.78125 85.695312 197.171875 85.851562 197.550781 C 86.011719 197.929688 86.203125 198.289062 86.429688 198.632812 C 86.660156 198.972656 86.917969 199.289062 87.207031 199.578125 C 87.496094 199.867188 87.8125 200.125 88.152344 200.355469 C 88.492188 200.582031 88.855469 200.773438 89.234375 200.929688 C 89.613281 201.085938 90 201.207031 90.402344 201.285156 C 90.804688 201.367188 91.210938 201.40625 91.621094 201.40625 Z M 91.621094 201.40625 " fill-opacity="1" fill-rule="nonzero"/><path fill="#38b6ff" d="M 64.566406 201.40625 L 66.648438 201.40625 C 67.058594 201.40625 67.464844 201.367188 67.863281 201.285156 C 68.265625 201.207031 68.65625 201.085938 69.035156 200.929688 C 69.414062 200.773438 69.773438 200.582031 70.117188 200.355469 C 70.457031 200.125 70.773438 199.867188 71.0625 199.578125 C 71.351562 199.289062 71.609375 198.972656 71.839844 198.632812 C 72.066406 198.289062 72.257812 197.929688 72.414062 197.550781 C 72.574219 197.171875 72.691406 196.78125 72.769531 196.378906 C 72.851562 195.976562 72.890625 195.574219 72.890625 195.164062 C 72.890625 194.886719 72.839844 194.621094 72.730469 194.367188 C 72.625 194.109375 72.476562 193.886719 72.28125 193.691406 C 72.085938 193.496094 71.859375 193.34375 71.605469 193.238281 C 71.351562 193.132812 71.085938 193.082031 70.808594 193.082031 L 60.402344 193.082031 C 60.128906 193.082031 59.863281 193.132812 59.605469 193.238281 C 59.351562 193.34375 59.125 193.496094 58.929688 193.691406 C 58.738281 193.886719 58.585938 194.109375 58.480469 194.367188 C 58.375 194.621094 58.320312 194.886719 58.320312 195.164062 C 58.320312 195.574219 58.363281 195.976562 58.441406 196.378906 C 58.523438 196.78125 58.640625 197.171875 58.796875 197.550781 C 58.953125 197.929688 59.144531 198.289062 59.375 198.632812 C 59.601562 198.972656 59.859375 199.289062 60.152344 199.578125 C 60.441406 199.867188 60.757812 200.125 61.097656 200.355469 C 61.4375 200.582031 61.796875 200.773438 62.175781 200.929688 C 62.554688 201.085938 62.945312 201.207031 63.347656 201.285156 C 63.75 201.367188 64.15625 201.40625 64.566406 201.40625 Z M 64.566406 201.40625 " fill-opacity="1" fill-rule="nonzero"/><g clip-path="url(#8516b7712d)"><path fill="#38b6ff" d="M 45.835938 195.164062 C 45.835938 213.515625 60.78125 228.460938 79.132812 228.460938 C 97.488281 228.460938 112.433594 213.515625 112.433594 195.164062 L 112.433594 182.675781 L 45.835938 182.675781 Z M 83.296875 215.976562 L 74.972656 215.976562 C 74.695312 215.976562 74.429688 215.921875 74.175781 215.816406 C 73.921875 215.710938 73.695312 215.558594 73.5 215.363281 C 73.304688 215.171875 73.15625 214.945312 73.050781 214.691406 C 72.945312 214.433594 72.890625 214.167969 72.890625 213.894531 C 72.890625 213.617188 72.945312 213.351562 73.050781 213.097656 C 73.15625 212.84375 73.304688 212.617188 73.5 212.421875 C 73.695312 212.226562 73.921875 212.078125 74.175781 211.972656 C 74.429688 211.863281 74.695312 211.8125 74.972656 211.8125 L 83.296875 211.8125 C 83.574219 211.8125 83.839844 211.863281 84.09375 211.972656 C 84.347656 212.078125 84.574219 212.226562 84.769531 212.421875 C 84.964844 212.617188 85.113281 212.84375 85.21875 213.097656 C 85.324219 213.351562 85.378906 213.617188 85.378906 213.894531 C 85.378906 214.167969 85.324219 214.433594 85.21875 214.691406 C 85.113281 214.945312 84.964844 215.171875 84.769531 215.363281 C 84.574219 215.558594 84.347656 215.710938 84.09375 215.816406 C 83.839844 215.921875 83.574219 215.976562 83.296875 215.976562 Z M 60.402344 188.917969 L 70.808594 188.917969 C 71.453125 188.921875 72.082031 189.019531 72.695312 189.214844 C 73.308594 189.414062 73.875 189.699219 74.402344 190.070312 C 74.925781 190.441406 75.382812 190.886719 75.769531 191.398438 C 76.160156 191.914062 76.460938 192.472656 76.675781 193.082031 L 81.59375 193.082031 C 81.808594 192.472656 82.109375 191.914062 82.496094 191.398438 C 82.886719 190.886719 83.34375 190.441406 83.867188 190.070312 C 84.390625 189.699219 84.960938 189.414062 85.574219 189.214844 C 86.1875 189.019531 86.816406 188.921875 87.460938 188.917969 L 97.867188 188.917969 C 98.277344 188.917969 98.683594 188.957031 99.082031 189.039062 C 99.484375 189.117188 99.875 189.238281 100.253906 189.394531 C 100.632812 189.550781 100.992188 189.742188 101.335938 189.972656 C 101.675781 190.199219 101.992188 190.457031 102.28125 190.746094 C 102.570312 191.039062 102.828125 191.351562 103.058594 191.695312 C 103.285156 192.035156 103.476562 192.394531 103.632812 192.773438 C 103.792969 193.152344 103.910156 193.542969 103.988281 193.945312 C 104.070312 194.347656 104.109375 194.753906 104.109375 195.164062 C 104.109375 195.84375 104.039062 196.523438 103.90625 197.191406 C 103.773438 197.859375 103.574219 198.511719 103.3125 199.140625 C 103.050781 199.773438 102.730469 200.371094 102.351562 200.9375 C 101.96875 201.507812 101.539062 202.03125 101.054688 202.515625 C 100.574219 202.996094 100.046875 203.429688 99.480469 203.808594 C 98.914062 204.1875 98.3125 204.507812 97.683594 204.769531 C 97.050781 205.035156 96.402344 205.230469 95.730469 205.367188 C 95.0625 205.5 94.386719 205.566406 93.703125 205.570312 L 91.621094 205.570312 C 91.027344 205.570312 90.4375 205.519531 89.847656 205.417969 C 89.261719 205.316406 88.6875 205.164062 88.128906 204.964844 C 87.566406 204.765625 87.027344 204.519531 86.507812 204.226562 C 85.988281 203.933594 85.5 203.601562 85.039062 203.222656 C 84.578125 202.847656 84.152344 202.433594 83.761719 201.984375 C 83.371094 201.535156 83.023438 201.054688 82.714844 200.546875 C 82.40625 200.035156 82.144531 199.503906 81.925781 198.949219 C 81.710938 198.394531 81.542969 197.828125 81.425781 197.242188 L 76.84375 197.242188 C 76.726562 197.828125 76.558594 198.394531 76.339844 198.949219 C 76.125 199.503906 75.863281 200.035156 75.554688 200.546875 C 75.246094 201.054688 74.898438 201.535156 74.507812 201.984375 C 74.117188 202.433594 73.691406 202.847656 73.230469 203.222656 C 72.769531 203.601562 72.277344 203.933594 71.761719 204.226562 C 71.242188 204.519531 70.703125 204.765625 70.140625 204.964844 C 69.582031 205.164062 69.007812 205.316406 68.417969 205.417969 C 67.832031 205.519531 67.242188 205.570312 66.648438 205.570312 L 64.566406 205.570312 C 63.882812 205.566406 63.207031 205.5 62.535156 205.367188 C 61.867188 205.230469 61.21875 205.035156 60.585938 204.769531 C 59.957031 204.507812 59.355469 204.1875 58.789062 203.808594 C 58.222656 203.429688 57.695312 202.996094 57.214844 202.515625 C 56.730469 202.03125 56.296875 201.507812 55.917969 200.9375 C 55.539062 200.371094 55.21875 199.773438 54.957031 199.140625 C 54.695312 198.511719 54.496094 197.859375 54.363281 197.191406 C 54.226562 196.523438 54.160156 195.84375 54.160156 195.164062 C 54.160156 194.753906 54.199219 194.347656 54.28125 193.945312 C 54.359375 193.542969 54.476562 193.152344 54.632812 192.773438 C 54.792969 192.394531 54.984375 192.035156 55.210938 191.695312 C 55.441406 191.351562 55.699219 191.039062 55.988281 190.746094 C 56.277344 190.457031 56.59375 190.199219 56.933594 189.972656 C 57.273438 189.742188 57.636719 189.550781 58.015625 189.394531 C 58.394531 189.238281 58.78125 189.117188 59.183594 189.039062 C 59.585938 188.957031 59.992188 188.917969 60.402344 188.917969 Z M 60.402344 188.917969 " fill-opacity="1" fill-rule="nonzero"/></g><g clip-path="url(#b726234edf)"><path fill="#38b6ff" d="M 104.050781 146.78125 C 103.933594 146.320312 103.683594 145.945312 103.308594 145.652344 C 102.929688 145.359375 102.503906 145.214844 102.027344 145.210938 L 85.378906 145.210938 C 84.683594 145.210938 84.128906 145.488281 83.714844 146.042969 L 79.132812 152.15625 L 74.554688 146.042969 C 74.140625 145.488281 73.585938 145.210938 72.890625 145.210938 L 56.242188 145.210938 C 55.765625 145.214844 55.335938 145.359375 54.960938 145.652344 C 54.585938 145.945312 54.335938 146.320312 54.214844 146.78125 L 49.882812 161.863281 L 108.632812 161.863281 Z M 104.050781 146.78125 " fill-opacity="1" fill-rule="nonzero"/></g><g clip-path="url(#8a92078de1)"><path fill="#38b6ff" d="M 118.679688 174.351562 L 111.980469 174.351562 L 109.898438 166.023438 L 48.691406 166.023438 L 46.289062 174.351562 L 39.589844 174.351562 C 39.316406 174.351562 39.050781 174.402344 38.792969 174.507812 C 38.539062 174.613281 38.3125 174.765625 38.117188 174.960938 C 37.925781 175.15625 37.773438 175.378906 37.667969 175.632812 C 37.5625 175.890625 37.507812 176.15625 37.507812 176.429688 C 37.507812 176.707031 37.5625 176.972656 37.667969 177.226562 C 37.773438 177.484375 37.925781 177.707031 38.117188 177.902344 C 38.3125 178.097656 38.539062 178.25 38.792969 178.355469 C 39.050781 178.460938 39.316406 178.511719 39.589844 178.511719 L 118.679688 178.511719 C 118.953125 178.511719 119.21875 178.460938 119.476562 178.355469 C 119.730469 178.25 119.953125 178.097656 120.148438 177.902344 C 120.34375 177.707031 120.496094 177.484375 120.601562 177.226562 C 120.707031 176.972656 120.757812 176.707031 120.757812 176.429688 C 120.757812 176.15625 120.707031 175.890625 120.601562 175.632812 C 120.496094 175.378906 120.34375 175.15625 120.148438 174.960938 C 119.953125 174.765625 119.730469 174.613281 119.476562 174.507812 C 119.21875 174.402344 118.953125 174.351562 118.679688 174.351562 Z M 118.679688 174.351562 " fill-opacity="1" fill-rule="nonzero"/></g></svg>